<?xml version="1.0" encoding="utf-8"?>
<!-- Generator: Adobe Illustrator 21.0.0, SVG Export Plug-In . SVG Version: 6.00 Build 0)  -->
<svg version="1.1" id="Слой_1" xmlns="http://www.w3.org/2000/svg" xmlns:xlink="http://www.w3.org/1999/xlink" x="0px" y="0px"
	 viewBox="0 0 42 42" style="enable-background:new 0 0 42 42;" xml:space="preserve">
<style type="text/css">
	.st0{fill:none;stroke:#CC151D;stroke-width:2;}
	.st1{fill:#FFFFFF;stroke:#CC151D;}
</style>
<path class="st0" d="M4,1h34c1.7,0,3,1.3,3,3v34c0,1.7-1.3,3-3,3H4c-1.7,0-3-1.3-3-3V4C1,2.3,2.3,1,4,1z"/>
<path class="st1" d="M14.1,28.2l14.1-14.1c0.2-0.2,0.5-0.2,0.7,0l0,0c0.2,0.2,0.2,0.5,0,0.7L14.8,28.9c-0.2,0.2-0.5,0.2-0.7,0l0,0
	C13.9,28.7,13.9,28.4,14.1,28.2z"/>
<path class="st1" d="M28.9,28.2L14.8,14.1c-0.2-0.2-0.5-0.2-0.7,0l0,0c-0.2,0.2-0.2,0.5,0,0.7l14.1,14.1c0.2,0.2,0.5,0.2,0.7,0l0,0
	C29.1,28.7,29.1,28.4,28.9,28.2z"/>
</svg>
