<svg id="Слой_1" data-name="Слой 1" xmlns="http://www.w3.org/2000/svg" viewBox="0 0 428.93 418.85"><defs><style>.cls-1{fill:#bd2e21;}.cls-1,.cls-2{fill-rule:evenodd;}.cls-2{fill:#fff;}</style></defs><title>logo-dark</title><path class="cls-1" d="M206.13,124.05,415.26,124v201.6L206.13,124.05ZM268,267.64,398.21,392.16h82.92v-331q-214.49.07-428.93,0L221.37,223,52.2,392.16h91.31Z" transform="translate(-52.2 -61.15)"/><path class="cls-2" d="M92.83,478.61h12.65L92,455.45a18.05,18.05,0,0,0,7.93-5.57,16.21,16.21,0,0,0,3.22-10.4c0-3.86-.75-9-4.61-12.86-4.29-4.29-10.08-4.82-13.72-4.82H52.2v56.82H63.46V456.42h16.3l13.08,22.19ZM84,445.48H63.46V432.62H83.18c2.14,0,4.4,0,6,1.07a6,6,0,0,1,2.36,5,7.14,7.14,0,0,1-1.82,5c-1.61,1.61-3.75,1.72-5.68,1.72Zm76.44-23.69H149.22v35.59c0,2.89,0,6.86-3.22,9.43-2.36,1.82-6.11,2.25-10.4,2.25-3.43,0-7.18-.21-9.54-2.14-2.79-2.25-2.89-5.47-2.89-8.47V421.79H111.81v37.84c0,4.72.75,10.4,4.93,14.69,5,5.15,13.19,5.68,19.08,5.68,6.54,0,14.15-.86,19-5,5-4.29,5.68-9.76,5.68-15.33V421.79Zm44.6,0h-31.2v56.82h34.84c4.93,0,10.61-.54,15.22-5.25a17,17,0,0,0,4.82-12.44,16.46,16.46,0,0,0-2.14-8.58,13,13,0,0,0-6.32-5.57c1.5-1.07,4.72-4,4.72-10.72a12.94,12.94,0,0,0-3.65-9.43c-4.29-4.29-11.15-4.82-16.29-4.82Zm1.07,21.33h-20.9V432.19h20.9c.64,0,3.75,0,5.36,1a4.44,4.44,0,0,1,2.14,4.18c0,2.79-1.29,4.18-2.14,4.72-1.29.86-3.65,1.07-5.36,1.07Zm1.29,25.09H185.24V453.52h23c2.25,0,5.25.54,6.86,1.93a6.5,6.5,0,0,1,2,5.15,8.08,8.08,0,0,1-2.47,6c-1.82,1.5-4.82,1.61-7.29,1.61Zm33.23,10.4h47.81V467.78H251.92V453.84h20.9V443h-20.9v-10.4h34.41V421.79H240.67v56.82Zm80.72,0c18.55,0,29.7-12,29.7-28.3s-11.58-28.52-29.7-28.52H296.63v56.82Zm0-46c11.58,0,18.23,7.29,18.23,17.58,0,10.51-6.22,17.58-18.23,17.58H308V432.62Zm111.92,46h47.81V467.78H444.57V453.84h20.9V443h-20.9v-10.4H479V421.79H433.31Z" transform="translate(-52.2 -61.15)"/><path class="cls-1" d="M361.27,478.82h11.36v-57H361.27v57Zm48.13-46.2h21.87V421.79h-55v10.83h21.87v46h11.26Z" transform="translate(-52.2 -61.15)"/></svg>