<svg width="118" height="116" viewBox="0 0 118 116" fill="none" xmlns="http://www.w3.org/2000/svg">
<g clip-path="url(#clip0)">
<path fill-rule="evenodd" clip-rule="evenodd" d="M42.2248 17.4695L99.5928 17.4501V73.4408L42.2248 17.4693V17.4695ZM59.2078 57.3477L25.0485 91.9317H0L46.4059 44.9488L0 0.0034077C39.2201 0.033539 78.437 0.0134515 117.662 0V91.9317H94.9157L59.2078 57.3477Z" fill="#1A1A1A"/>
</g>
<path d="M85.0275 115.674H88.1536V99.8787H85.0275V115.674ZM98.2694 102.877H104.286V99.8787H89.1563V102.877H95.1727V115.614H98.2694V102.877Z" fill="#1A1A1A"/>
<path d="M11.1778 115.614H14.6579L10.9418 109.201C11.8266 108.874 12.6228 108.31 13.1242 107.657C13.8617 106.707 14.0089 105.667 14.0089 104.777C14.0089 103.708 13.8027 102.283 12.7408 101.214C11.5612 100.026 9.96862 99.8779 8.96573 99.8779H0V115.614H3.09659V109.468H7.57946L11.1774 115.614L11.1778 115.614ZM8.75929 106.44H3.09677V102.877H8.52336C9.11319 102.877 9.73251 102.877 10.1751 103.174C10.47 103.382 10.8237 103.827 10.8237 104.569C10.8237 105.074 10.6762 105.608 10.3223 105.965C9.87996 106.41 9.29014 106.44 8.75911 106.44H8.75929ZM29.7873 99.8781H26.6908V109.735C26.6908 110.537 26.6908 111.635 25.806 112.348C25.1572 112.853 24.1248 112.971 22.9452 112.971C22.0014 112.971 20.9691 112.912 20.3203 112.378C19.5535 111.754 19.524 110.863 19.524 110.032V99.8781H16.3979V110.359C16.3979 111.665 16.6042 113.239 17.7545 114.426C19.1406 115.851 21.382 116 23.0042 116C24.8031 116 26.8972 115.762 28.2243 114.604C29.6104 113.417 29.7873 111.903 29.7873 110.359V99.8781ZM42.0563 99.8781H33.4739V115.614H43.059C44.4156 115.614 45.9786 115.465 47.2469 114.159C47.8956 113.506 48.5741 112.407 48.5741 110.715C48.5741 109.884 48.4266 109.112 47.9842 108.34C47.4534 107.449 46.8046 107.034 46.2442 106.796C46.6571 106.499 47.5419 105.697 47.5419 103.827C47.5419 103.114 47.3944 102.075 46.5392 101.214C45.3595 100.027 43.4721 99.8781 42.0565 99.8781H42.0563ZM42.3512 105.786H36.6002V102.758H42.3512C42.5282 102.758 43.3834 102.758 43.8258 103.025C44.3566 103.322 44.4156 103.857 44.4156 104.183C44.4156 104.955 44.0615 105.341 43.8258 105.49C43.4719 105.727 42.8231 105.787 42.3512 105.787V105.786ZM42.7051 112.734H36.6002V108.666H42.9412C43.5605 108.666 44.3863 108.815 44.8287 109.201C44.9466 109.29 45.389 109.735 45.389 110.626C45.389 111.22 45.1529 111.932 44.7105 112.288C44.2092 112.704 43.3834 112.734 42.7049 112.734H42.7051ZM51.8478 115.614H65.0013V112.615H54.9444V108.755H60.6954V105.757H54.9444V102.877H64.4115V99.8779H51.8478V115.614V115.614ZM74.0555 115.614C79.1579 115.614 82.225 112.288 82.225 107.776C82.225 103.233 79.0399 99.8781 74.0555 99.8781H67.2428V115.614H74.0555ZM74.0555 102.877C77.2407 102.877 79.0694 104.896 79.0694 107.746C79.0694 110.656 77.3587 112.615 74.0555 112.615H70.3691V102.877H74.0555ZM104.846 115.614H117.999V112.615H107.942V108.755H113.693V105.757H107.942V102.877H117.409V99.8779H104.846V115.614V115.614Z" fill="#1A1A1A"/>
<defs>
<clipPath id="clip0">
<rect width="117.662" height="91.9317" fill="white"/>
</clipPath>
</defs>
</svg>
